{"title":"How.To.Train.Your.Dragon.2010.TELESYNC.XVID.FEEL-FREE","uid":5640979,"size":866543349,"categoryP":"video","categoryS":"movies","magnet":"?xt=urn:btih:1ed31e507b78cde12669750f51aa24a0c0ce9c3d&amp;dn=How.To.Train.Your.Dragon.2010.TELESYNC.XVID.FEEL-FREE&amp;tr=udp%3A%2F%2Ftracker.openbittorrent.com%3A80&amp;tr=udp%3A%2F%2Fopen.demonii.com%3A1337&amp;tr=udp%3A%2F%2Ftracker.coppersurfer.tk%3A6969&amp;tr=udp%3A%2F%2Fexodus.desync.com%3A6969","seeders":1,"leechers":0,"uploader":"hiest","files":10,"time":1277106274,"description":"Genre:Animation | Family\nLanguage: English\nIMDb:http://www.imdb.com/title/tt0892769/\nSource Video:TELESYNC.German.XviD.iNTERNAL-CiNEJUNKiEZ.Thanks\nSource Audio:Russian DVDScr.Thanks\nEncoder: Tony2\n.............................................\nGeneral\nComplete name : How.To.Train.Your.Dragon.2010.TELESYNC.XVID.FEEL-FREE\nFormat : AVI\nFormat/Info : Audio Video Interleave\nFile size : 825 MiB\nDuration : 1h 25mn\nOverall bit rate : 1 341 Kbps\n..............................................\nVideo\nFormat : xvid\nCodec ID : xvid\nDuration : 1h 25mn\nBit rate : 1 200 Kbps\nWidth : 704 pixels\nHeight : 304 pixels\nDisplay aspect ratio : 2.35:1\nFrame rate : 25.000 fps\nResolution : 24 bits\nBits/(Pixel*Frame) : 0.224\nStream size : 738 MiB (89%)\n..............................................\nAudio\nID : 1\nFormat : MPEG Audio\nFormat version : Version 1\nFormat profile : Layer 3\nCodec ID : 55\nCodec ID/Hint : MP3\nDuration : 1h 25mn\nBit rate mode : Constant\nBit rate : 128 Kbps\nChannel(s) : 2 channels\nSampling rate : 48.0 KHz\nResolution : 16 bits\nStream size : 78.7 MiB (10%)\nAlignment : Aligned on interleaves\nInterleave, duration : 24 ms (0.60 video frame)\nInterleave, preload duration : 24 ms\n...............................................\nPlot: \nA hapless young Viking who aspires to hunt dragons becomes the unlikely friend of a young dragon himself, and learns there may be more to the creatures than he assumed.\n...................................................\nScreenshots:\n &lt;a href=&quot;\nhttp://postimg.com/image/17000/16722.jpg&quot; rel=&quot;nofollow&quot; target=&quot;_NEW&quot;&gt;\nhttp://postimg.com/image/17000/16722.jpg&lt;/a&gt;\n &lt;a href=&quot;\nhttp://postimg.com/image/17000/16723.jpg&quot; rel=&quot;nofollow&quot; target=&quot;_NEW&quot;&gt;\nhttp://postimg.com/image/17000/16723.jpg&lt;/a&gt;\n\n........................................................","torrent":{"xt":"urn:btih:1ed31e507b78cde12669750f51aa24a0c0ce9c3d","amp;dn":"How.To.Train.Your.Dragon.2010.TELESYNC.XVID.FEEL-FREE","amp;tr":["udp%3A%2F%2Ftracker.openbittorrent.com%3A80","udp%3A%2F%2Fopen.demonii.com%3A1337","udp%3A%2F%2Ftracker.coppersurfer.tk%3A6969","udp%3A%2F%2Fexodus.desync.com%3A6969"],"infoHash":"1ed31e507b78cde12669750f51aa24a0c0ce9c3d","infoHashBuffer":{"type":"Buffer","data":[30,211,30,80,123,120,205,225,38,105,117,15,81,170,36,160,192,206,156,61]},"announce":[],"urlList":[]}}